<svg xmlns="http://www.w3.org/2000/svg" width="1200" height="1400" viewBox="0 0 1200 1400" role="img" aria-label="Ilustrasi gedung kampus IPB">
  <defs>
    <linearGradient id="sky" x1="0" x2="0" y1="0" y2="1">
      <stop offset="0" stop-color="#c8e9e8"/>
      <stop offset="1" stop-color="#f9f9f7"/>
    </linearGradient>
    <linearGradient id="glass" x1="0" x2="1" y1="0" y2="1">
      <stop offset="0" stop-color="#adcdcc"/>
      <stop offset="1" stop-color="#466463"/>
    </linearGradient>
  </defs>
  <rect width="1200" height="1400" fill="url(#sky)"/>
  <path d="M0 1030 C220 920 360 980 560 910 C760 840 950 860 1200 760 L1200 1400 L0 1400 Z" fill="#0f2e2e"/>
  <path d="M0 1120 C230 1030 420 1090 650 1000 C850 922 1020 960 1200 890 L1200 1400 L0 1400 Z" fill="#006c47" opacity=".82"/>
  <rect x="230" y="430" width="740" height="520" rx="12" fill="#f4f4f2"/>
  <rect x="300" y="500" width="120" height="105" rx="8" fill="url(#glass)"/>
  <rect x="455" y="500" width="120" height="105" rx="8" fill="url(#glass)"/>
  <rect x="610" y="500" width="120" height="105" rx="8" fill="url(#glass)"/>
  <rect x="765" y="500" width="120" height="105" rx="8" fill="url(#glass)"/>
  <rect x="300" y="655" width="120" height="105" rx="8" fill="url(#glass)"/>
  <rect x="455" y="655" width="120" height="105" rx="8" fill="url(#glass)"/>
  <rect x="610" y="655" width="120" height="105" rx="8" fill="url(#glass)"/>
  <rect x="765" y="655" width="120" height="105" rx="8" fill="url(#glass)"/>
  <path d="M180 430 L600 230 L1020 430 Z" fill="#001919"/>
  <path d="M240 430 L600 270 L960 430 Z" fill="#0f2e2e"/>
  <rect x="535" y="790" width="130" height="160" rx="10" fill="#0f2e2e"/>
  <path d="M70 900 C120 820 230 820 286 908 C214 934 142 934 70 900 Z" fill="#71dba5"/>
  <path d="M914 908 C970 820 1080 820 1130 900 C1058 934 986 934 914 908 Z" fill="#8ef7c0"/>
  <path d="M0 1080 H1200 V1400 H0 Z" fill="#001919" opacity=".36"/>
</svg>
